<?xml version="1.0" standalone="no"?>
<!DOCTYPE svg PUBLIC "-//W3C//DTD SVG 20010904//EN"
 "http://www.w3.org/TR/2001/REC-SVG-20010904/DTD/svg10.dtd">
<svg version="1.0" xmlns="http://www.w3.org/2000/svg"
 width="1024.000000pt" height="1024.000000pt" viewBox="0 0 1024.000000 1024.000000"
 preserveAspectRatio="xMidYMid meet">

<g transform="translate(0.000000,1024.000000) scale(0.100000,-0.100000)"
fill="#000000" stroke="none">
<path d="M5400 8938 c-19 -13 -44 -43 -58 -68 -19 -37 -23 -55 -18 -99 6 -63
29 -93 86 -110 28 -8 53 -28 87 -68 26 -31 77 -88 111 -127 35 -38 87 -101
116 -140 29 -39 102 -125 162 -191 180 -197 304 -359 304 -397 0 -9 -18 -32
-41 -50 -42 -34 -143 -176 -160 -228 -6 -17 -20 -31 -35 -34 -13 -4 -659 -6
-1436 -6 -979 0 -1431 -3 -1473 -10 -362 -66 -620 -320 -714 -703 l-32 -127 0
-1318 c0 -1421 -2 -1364 52 -1524 50 -149 165 -311 282 -399 44 -32 83 -59 88
-59 9 0 23 -39 78 -216 31 -99 49 -140 76 -171 68 -79 -79 -73 1743 -73 895 1
1916 0 2270 0 446 -1 655 3 685 10 48 13 94 51 112 95 7 17 23 91 36 165 25
153 34 169 118 229 169 118 285 302 343 541 21 83 21 112 26 1400 3 998 1
1332 -8 1385 -26 152 -109 341 -200 453 -49 61 -158 157 -230 203 -62 41 -192
89 -280 105 -41 7 -141 13 -221 14 l-146 0 -13 39 c-14 43 -136 214 -169 237
-31 22 -26 46 24 111 25 32 73 96 107 143 34 47 100 135 147 196 47 62 129
169 180 239 123 165 177 225 204 225 36 0 122 45 140 73 48 74 36 184 -27 231
-68 51 -159 59 -236 20 -87 -43 -107 -116 -65 -235 13 -35 12 -38 -17 -65 -17
-16 -61 -69 -99 -119 -37 -49 -91 -117 -118 -150 -28 -33 -85 -105 -126 -160
-148 -195 -255 -333 -284 -364 -27 -29 -31 -30 -82 -23 -72 9 -246 9 -285 -2
-41 -11 -74 18 -179 159 -78 103 -343 433 -517 643 -71 85 -77 96 -70 125 13
58 7 115 -14 144 -28 38 -99 73 -150 73 -26 0 -53 -8 -74 -22z m97 -110 c-3
-8 -6 -5 -6 6 -1 11 2 17 5 13 3 -3 4 -12 1 -19z m2116 4 c27 -30 26 -64 -3
-73 -51 -15 -80 -10 -89 14 -12 31 -3 47 33 63 40 17 40 17 59 -4z m-892
-1190 c81 -39 189 -149 189 -191 0 -13 -2 -13 -9 -2 -5 8 -18 12 -29 9 -14 -4
-26 3 -41 23 -49 66 -161 93 -358 87 -128 -4 -128 -4 -193 -42 -36 -22 -73
-47 -83 -58 -10 -10 -24 -18 -32 -18 -18 0 81 126 125 158 76 56 105 63 250
59 115 -3 143 -7 181 -25z m419 -276 c0 -2 -8 -10 -17 -17 -16 -13 -17 -12 -4
4 13 16 21 21 21 13z m305 -100 c99 -17 239 -75 314 -132 62 -46 151 -149 193
-222 32 -55 82 -201 98 -287 8 -43 10 -438 8 -1375 -4 -1428 0 -1328 -57
-1481 -60 -159 -214 -326 -376 -407 -52 -26 -105 -37 -105 -23 0 7 55 64 123
129 215 205 263 256 275 290 l11 33 -52 -42 c-28 -24 -75 -64 -103 -89 -28
-25 -79 -67 -115 -95 -75 -58 -153 -136 -186 -184 -18 -26 -20 -37 -12 -47 10
-12 -4 -14 -80 -14 l-91 0 86 89 c47 49 95 102 107 117 13 16 39 46 60 67 20
21 37 44 37 52 0 28 -44 -1 -141 -93 -106 -102 -179 -189 -179 -214 0 -11 -12
-17 -41 -20 -61 -6 -109 2 -109 18 0 12 46 64 211 241 59 63 125 169 82 131
-11 -10 -24 -18 -29 -18 -6 0 -40 -30 -75 -67 -36 -38 -99 -97 -141 -133 -45
-39 -81 -79 -89 -100 -8 -19 -15 -38 -17 -41 -1 -3 8 -11 20 -17 18 -8 -19
-11 -159 -11 -101 -1 -183 1 -183 4 0 21 49 91 105 153 37 40 65 76 61 79 -14
14 -155 -100 -198 -160 -11 -16 -21 -39 -22 -51 -1 -20 -7 -21 -88 -23 -49 -1
-88 2 -88 6 0 4 37 43 83 87 76 73 186 204 172 204 -4 0 -13 -6 -20 -12 -8 -7
-36 -33 -63 -58 -26 -25 -83 -71 -125 -103 -42 -32 -82 -72 -89 -88 -17 -38
-29 -41 -110 -33 l-69 7 83 81 c99 97 110 112 106 133 -2 12 -26 -3 -95 -60
-97 -81 -149 -139 -138 -157 4 -7 -87 -10 -293 -10 -165 1 -301 3 -304 5 -2 2
38 47 90 100 85 87 105 120 74 120 -17 0 -212 -194 -212 -211 0 -11 -17 -14
-75 -14 -41 0 -75 3 -75 8 0 4 43 58 95 121 52 63 95 116 95 118 0 29 -210
-169 -232 -219 -13 -27 -15 -28 -90 -28 -50 0 -78 4 -78 11 0 6 21 32 48 58
52 52 152 172 152 183 0 37 -149 -92 -252 -219 -18 -23 -35 -33 -59 -34 -57
-4 -109 1 -109 10 0 4 50 63 111 130 76 83 108 126 101 133 -12 12 -188 -146
-245 -221 l-38 -50 -101 -3 c-55 -2 -105 0 -112 4 -7 5 10 27 47 60 32 29 82
74 110 100 56 51 59 69 5 43 -53 -28 -224 -152 -246 -180 -17 -21 -28 -25 -76
-25 -39 0 -56 4 -56 13 0 7 38 55 85 107 46 52 85 98 85 101 0 4 -9 9 -20 12
-16 4 -46 -19 -131 -100 -62 -60 -108 -112 -105 -119 3 -7 0 -15 -7 -17 -12
-4 -129 3 -136 9 -2 2 42 53 98 113 98 107 118 141 85 141 -25 0 -237 -207
-249 -242 -5 -15 -19 -18 -76 -18 -38 0 -69 4 -69 9 0 5 28 38 63 73 91 92
167 181 167 195 0 35 -47 4 -148 -99 -61 -62 -122 -128 -137 -145 -25 -31 -31
-33 -91 -33 l-65 0 15 29 c8 15 50 65 92 110 96 101 109 120 96 133 -10 10
-35 -9 -136 -102 -60 -55 -128 -139 -121 -150 7 -11 -20 -16 -98 -19 -84 -3
-86 -11 52 145 64 71 101 121 97 130 -3 7 -9 14 -13 14 -16 0 -229 -209 -253
-248 l-25 -41 -72 -1 c-40 0 -73 4 -73 9 0 5 41 53 91 108 86 93 126 149 116
160 -7 6 -137 -100 -203 -165 -28 -27 -56 -64 -64 -81 -12 -31 -12 -31 -92
-31 -76 0 -78 1 -68 21 6 11 58 72 116 135 58 63 102 119 99 124 -13 21 -36 7
-117 -70 -47 -44 -97 -89 -112 -101 -33 -26 -60 -75 -46 -84 48 -29 -67 -30
-178 0 -29 7 -74 26 -100 41 -26 16 -64 37 -85 47 -92 46 -239 234 -268 342
-6 22 -20 61 -30 87 -11 26 -19 64 -19 86 0 36 7 46 125 161 119 117 144 151
110 151 -17 0 -184 -163 -222 -215 l-22 -30 0 342 -1 343 42 21 c24 12 85 64
136 116 l92 96 0 -100 0 -100 -29 -6 c-19 -4 -53 -31 -93 -72 -77 -79 -100
-115 -87 -135 7 -12 29 7 103 85 51 55 96 98 99 95 2 -3 7 -57 10 -120 5 -132
40 -256 110 -395 105 -210 209 -316 403 -413 161 -81 173 -82 823 -92 558 -9
1766 -5 1845 5 50 7 201 57 257 85 225 114 401 366 461 660 17 84 16 1444 -2
1665 -22 291 -117 495 -310 671 -96 88 -342 206 -467 223 -59 9 -523 25 -563
20 -8 -1 -330 -3 -715 -5 -909 -2 -1094 -8 -1166 -33 -155 -54 -298 -138 -380
-223 -100 -104 -200 -270 -260 -429 l-31 -84 -3 -523 c-1 -287 -4 -523 -6
-525 -2 -1 -16 -9 -30 -17 -15 -8 -63 -50 -109 -92 -65 -62 -80 -82 -75 -98 9
-28 15 -25 55 23 45 54 149 152 155 146 7 -8 14 -159 8 -175 -3 -8 -19 -22
-36 -31 -17 -8 -77 -63 -134 -122 l-103 -106 3 955 3 955 28 95 c36 123 82
210 159 299 96 112 194 179 332 228 l80 28 1615 5 c2104 7 2671 4 2775 -14z
m386 -79 c-10 -9 -11 -8 -5 6 3 10 9 15 12 12 3 -3 0 -11 -7 -18z m-5291 -177
c0 -5 -4 -10 -10 -10 -5 0 -10 5 -10 10 0 6 5 10 10 10 6 0 10 -4 10 -10z
m1480 -80 c0 -5 -5 -10 -11 -10 -5 0 -7 5 -4 10 3 6 8 10 11 10 2 0 4 -4 4
-10z m980 -30 c0 -5 -5 -10 -11 -10 -5 0 -7 5 -4 10 3 6 8 10 11 10 2 0 4 -4
4 -10z m1030 0 c0 -5 -5 -10 -11 -10 -5 0 -7 5 -4 10 3 6 8 10 11 10 2 0 4 -4
4 -10z m-2420 -20 c0 -5 -5 -10 -11 -10 -5 0 -7 5 -4 10 3 6 8 10 11 10 2 0 4
-4 4 -10z m90 6 c0 -3 -4 -8 -10 -11 -5 -3 -10 -1 -10 4 0 6 5 11 10 11 6 0
10 -2 10 -4z m1420 -16 c8 -5 11 -10 5 -10 -5 0 -17 5 -25 10 -8 5 -10 10 -5
10 6 0 17 -5 25 -10z m-74 -9 c-10 -16 45 -19 299 -20 456 -2 616 -35 793
-165 121 -90 235 -257 281 -414 11 -37 29 -123 41 -192 19 -118 21 -163 21
-786 -1 -390 -5 -691 -11 -735 -24 -174 -73 -321 -143 -424 -41 -60 -134 -147
-192 -180 -33 -18 -103 -48 -155 -66 -90 -30 -105 -33 -300 -40 -113 -5 -619
-6 -1124 -3 -972 5 -1041 8 -1186 53 -115 36 -251 141 -329 255 -72 104 -130
269 -152 434 -11 81 -14 1343 -3 1462 10 113 32 214 64 296 100 253 280 404
548 460 204 43 243 45 891 49 420 3 638 8 645 15 12 12 19 13 12 1z m534 -1
c0 -5 -5 -10 -11 -10 -5 0 -7 5 -4 10 3 6 8 10 11 10 2 0 4 -4 4 -10z m2545
-450 c3 -5 1 -10 -4 -10 -6 0 -11 5 -11 10 0 6 2 10 4 10 3 0 8 -4 11 -10z
m-5300 -1320 c3 -5 1 -10 -4 -10 -6 0 -11 5 -11 10 0 6 2 10 4 10 3 0 8 -4 11
-10z m-425 -190 c0 -5 -2 -10 -4 -10 -3 0 -8 5 -11 10 -3 6 -1 10 4 10 6 0 11
-4 11 -10z m4022 -752 c-7 -7 -12 -8 -12 -2 0 14 12 26 19 19 2 -3 -1 -11 -7
-17z m-2392 -378 c0 -5 -4 -10 -10 -10 -5 0 -10 5 -10 10 0 6 5 10 10 10 6 0
10 -4 10 -10z m1910 0 c0 -5 -4 -10 -10 -10 -5 0 -10 5 -10 10 0 6 5 10 10 10
6 0 10 -4 10 -10z m-3315 -380 c3 -5 1 -10 -4 -10 -6 0 -11 5 -11 10 0 6 2 10
4 10 3 0 8 -4 11 -10z m2806 -153 c-10 -9 -11 -8 -5 6 3 10 9 15 12 12 3 -3 0
-11 -7 -18z m-2001 -7 c0 -5 -4 -10 -10 -10 -5 0 -10 5 -10 10 0 6 5 10 10 10
6 0 10 -4 10 -10z m-439 -108 c9 -72 15 -82 45 -82 l27 0 -5 65 -6 65 50 0 49
0 -7 -74 c-6 -71 -6 -74 16 -81 33 -11 42 11 35 88 l-5 68 47 -3 48 -3 0 -75
c1 -41 4 -87 9 -101 8 -26 7 -27 -44 -30 -29 -2 -54 -1 -56 2 -2 4 -15 4 -29
2 -14 -3 -51 -2 -82 2 -50 6 -63 13 -94 45 -32 34 -69 112 -69 146 0 12 33 23
55 19 6 -1 13 -25 16 -53z m449 -11 c0 -32 3 -79 6 -105 7 -46 6 -46 -22 -46
-71 0 -71 2 -68 108 2 53 4 98 4 100 0 1 18 2 40 2 l40 0 0 -59z m145 -46 l0
-100 -35 0 -35 0 -2 90 c-2 50 -1 96 2 103 3 8 17 12 37 10 l33 -3 0 -100z
m155 68 c0 -21 3 -68 7 -105 l6 -68 -47 0 -46 0 0 99 c0 105 0 105 51 109 27
2 29 0 29 -35z m495 -70 l1 -103 -54 0 c-51 0 -54 1 -48 23 3 12 6 57 6 99 0
76 0 77 28 81 68 11 67 12 67 -100z m505 12 c3 -49 2 -96 -3 -102 -10 -14
-103 -18 -111 -5 -2 4 2 32 10 62 8 30 14 71 14 91 0 45 6 51 50 47 l35 -3 5
-90z m145 79 c13 -13 15 -28 9 -70 -4 -34 -2 -59 4 -67 6 -7 9 -23 5 -35 -4
-18 -12 -22 -47 -22 -58 0 -69 10 -56 45 6 16 13 56 15 88 5 74 32 98 70 61z
m155 -43 c0 -32 3 -79 6 -105 l7 -46 -51 0 c-57 0 -76 17 -62 56 5 12 10 45
11 73 3 67 12 78 67 80 20 1 22 -3 22 -58z m168 -50 c2 -50 -2 -92 -7 -95 -5
-4 -28 -3 -51 0 -38 6 -41 9 -36 33 3 14 7 56 8 93 2 67 2 67 33 70 16 2 35 0
41 -4 5 -4 11 -47 12 -97z m141 99 c4 0 8 -47 8 -105 l0 -105 -41 6 c-22 4
-44 9 -47 13 -4 3 -4 46 -1 94 4 78 7 90 26 97 11 5 27 7 34 4 8 -2 17 -4 21
-4z m161 -16 c6 -14 10 -61 10 -105 l0 -79 -45 0 -45 0 0 53 c0 28 3 76 6 105
6 49 8 52 36 52 21 0 31 -6 38 -26z m148 16 c9 0 12 -21 11 -77 -1 -43 0 -82
1 -88 6 -24 -2 -33 -36 -37 -48 -6 -55 12 -48 109 7 101 9 107 37 99 12 -3 28
-6 35 -6z m147 -47 c3 -32 8 -79 11 -105 l5 -48 -41 0 -40 0 0 105 0 105 29 0
c29 0 30 -2 36 -57z m150 -49 l0 -99 -40 0 -40 0 4 95 c3 100 9 112 51 107 25
-4 25 -5 25 -103z m473 8 c3 -97 4 -94 -48 -106 -48 -10 -52 2 -39 100 6 49
16 92 23 97 6 4 22 6 36 5 24 -3 25 -5 28 -96z m542 2 c8 -108 5 -114 -41
-114 -26 0 -42 5 -45 15 -9 22 17 179 30 187 6 4 20 1 31 -6 16 -11 21 -28 25
-82z m-3078 -9 l3 -95 -33 -6 c-19 -4 -37 -3 -40 2 -4 5 -6 51 -4 102 l3 92
34 0 34 0 3 -95z m170 10 c3 -44 8 -87 10 -95 2 -12 -9 -16 -52 -18 l-55 -3 2
98 c2 54 3 99 3 101 0 2 19 2 43 0 l42 -3 7 -80z m363 -12 l-4 -98 -32 -3
c-17 -2 -43 -1 -56 3 -21 5 -24 10 -18 33 4 15 9 53 11 85 2 32 6 62 9 67 4 6
26 10 49 10 l44 0 -3 -97z m149 37 c-4 -36 -3 -65 3 -72 6 -7 14 -23 17 -35 6
-20 4 -23 -18 -23 -14 0 -27 -4 -30 -9 -3 -5 -20 -5 -38 -2 -28 6 -33 11 -30
32 1 13 5 51 8 84 8 84 8 85 54 85 l41 0 -7 -60z m1544 -43 l3 -98 -38 3 -38
3 -3 84 c-4 105 -1 113 40 109 l33 -3 3 -98z m152 8 l0 -95 -34 0 c-42 0 -46
9 -46 111 l0 79 40 0 40 0 0 -95z m295 25 c9 -39 21 -73 26 -76 5 -3 9 -14 9
-25 0 -16 -7 -19 -50 -19 l-50 0 0 88 c0 93 3 102 31 102 13 0 21 -17 34 -70z
m246 -25 c-1 -49 -5 -93 -8 -98 -7 -12 -80 -2 -98 13 -8 7 -15 24 -15 39 l-1
26 -12 -23 c-13 -22 -13 -22 -25 12 -16 43 -7 80 24 101 25 16 27 14 25 -20
-1 -15 3 -12 20 13 19 28 27 33 57 30 l35 -3 -2 -90z m272 87 c3 -4 6 -48 8
-97 l3 -90 -39 3 c-53 5 -59 13 -45 56 6 19 11 54 12 78 0 24 5 46 12 50 14
10 44 10 49 0z m153 0 c7 -4 11 -41 10 -99 l-1 -93 -30 0 c-53 0 -56 7 -49
108 7 91 7 92 33 92 14 0 31 -4 37 -8z m159 -29 c-7 -42 -9 -94 -3 -133 3 -23
0 -25 -46 -28 l-49 -3 8 93 c4 51 9 96 12 100 2 5 22 8 45 8 l40 0 -7 -37z
m145 -22 c0 -102 -26 -141 -95 -141 -37 0 -39 17 -9 57 21 28 28 49 28 82 1
37 5 47 21 53 50 16 55 12 55 -51z m-890 -96 c0 -14 -4 -25 -10 -25 -5 0 -10
11 -10 25 0 14 5 25 10 25 6 0 10 -11 10 -25z m307 -81 c-3 -3 -12 -4 -19 -1
-8 3 -5 6 6 6 11 1 17 -2 13 -5z m-2780 -26 c-3 -8 -6 -5 -6 6 -1 11 2 17 5
13 3 -3 4 -12 1 -19z m-217 -12 c0 -3 -4 -8 -10 -11 -5 -3 -10 -1 -10 4 0 6 5
11 10 11 6 0 10 -2 10 -4z m3395 -6 c3 -6 -1 -7 -9 -4 -18 7 -21 14 -7 14 6 0
13 -4 16 -10z m-4115 -10 c0 -5 -4 -10 -10 -10 -5 0 -10 5 -10 10 0 6 5 10 10
10 6 0 10 -4 10 -10z"/>
<path d="M3390 7164 c-25 -25 -66 -63 -92 -85 -78 -66 -114 -129 -56 -98 28
15 159 140 200 192 25 32 27 37 11 37 -10 -1 -38 -21 -63 -46z"/>
<path d="M4072 7192 c-71 -39 -167 -140 -149 -158 2 -2 31 18 66 44 60 47 128
119 119 127 -2 3 -18 -3 -36 -13z"/>
<path d="M4223 7138 c-81 -85 -103 -118 -77 -118 22 0 144 129 144 153 0 9 5
17 10 17 6 0 10 5 10 10 0 21 -19 7 -87 -62z"/>
<path d="M4932 7139 c-75 -79 -81 -89 -57 -89 10 0 35 18 57 40 22 22 44 40
48 40 8 0 50 62 50 74 0 23 -41 -4 -98 -65z"/>
<path d="M5153 7136 c-69 -69 -94 -114 -56 -99 36 14 153 142 153 167 0 20
-35 -4 -97 -68z"/>
<path d="M5429 7191 c-9 -9 -34 -32 -55 -53 -22 -20 -47 -50 -58 -68 -18 -31
-18 -32 0 -22 34 18 144 123 144 137 0 21 -13 24 -31 6z"/>
<path d="M5586 7137 c-76 -75 -94 -103 -56 -89 27 10 128 109 136 134 12 38
-5 29 -80 -45z"/>
<path d="M5987 7131 c-42 -43 -77 -82 -77 -88 0 -6 12 -8 26 -5 16 3 41 25 67
60 23 30 50 65 60 78 10 12 14 25 9 28 -5 3 -43 -30 -85 -73z"/>
<path d="M6173 7106 c-97 -96 -123 -136 -88 -136 17 0 157 139 186 185 19 31
25 56 12 54 -5 -1 -54 -47 -110 -103z"/>
<path d="M3183 7159 c-18 -22 -34 -39 -36 -37 -6 4 -266 -251 -330 -323 -26
-29 -45 -59 -43 -66 3 -7 -1 -10 -10 -6 -7 3 -14 0 -14 -6 0 -6 -4 -10 -10 -9
-5 2 -40 -29 -77 -67 -38 -39 -85 -84 -107 -100 -29 -23 -37 -36 -35 -54 4
-21 13 -14 92 63 48 47 91 86 96 86 11 0 167 155 282 281 48 52 123 131 168
176 44 45 81 87 81 93 0 21 -26 7 -57 -31z"/>
<path d="M3582 7149 c-99 -96 -136 -165 -55 -103 52 39 143 130 143 143 0 25
-38 7 -88 -40z"/>
<path d="M4498 7177 c-13 -13 -44 -41 -70 -62 -46 -36 -62 -65 -35 -65 11 0
84 70 131 128 25 29 3 29 -26 -1z"/>
<path d="M5850 7193 c-8 -3 -42 -35 -75 -72 -51 -56 -57 -66 -40 -70 14 -2 38
16 82 64 73 78 79 93 33 78z"/>
<path d="M3767 7121 c-69 -66 -83 -96 -35 -74 35 16 149 124 142 134 -12 20
-37 6 -107 -60z"/>
<path d="M4750 7170 c-8 -16 -8 -20 3 -20 8 0 17 9 20 20 3 11 1 20 -4 20 -4
0 -13 -9 -19 -20z"/>
<path d="M6427 7135 c-27 -29 -56 -61 -66 -72 -9 -10 -44 -42 -79 -72 -61 -53
-73 -73 -51 -87 11 -6 279 259 279 277 0 23 -40 2 -83 -46z"/>
<path d="M6684 7176 c-17 -8 -42 -29 -55 -47 -13 -19 -83 -94 -157 -166 -121
-121 -144 -153 -108 -153 13 0 140 136 170 183 10 15 49 49 86 76 37 27 76 65
88 85 23 40 21 41 -24 22z"/>
<path d="M6900 7180 c0 -6 -19 -28 -41 -50 -30 -29 -40 -44 -34 -57 6 -16 8
-16 26 7 11 14 31 37 45 52 26 28 30 43 14 53 -5 3 -10 1 -10 -5z"/>
<path d="M2904 7108 c-70 -58 -318 -317 -310 -325 5 -6 76 46 76 56 0 8 112
123 175 181 43 38 112 120 102 120 -2 0 -21 -14 -43 -32z"/>
<path d="M4600 7085 c-14 -16 -10 -18 14 -9 9 3 16 10 16 15 0 14 -16 11 -30
-6z"/>
<path d="M7175 6936 c-60 -19 -173 -99 -237 -169 -32 -34 -74 -95 -95 -137
l-38 -75 0 -145 0 -145 40 -80 c160 -325 614 -410 869 -165 105 101 166 240
166 378 0 90 -31 202 -81 289 -59 103 -211 216 -334 247 -71 19 -233 20 -290
2z m300 -159 c154 -63 243 -211 233 -391 -3 -68 -10 -91 -37 -143 -75 -141
-196 -209 -355 -201 -66 3 -92 10 -136 34 -75 40 -150 117 -186 189 -26 55
-29 69 -29 165 0 95 3 111 28 162 48 98 164 184 279 207 58 12 142 3 203 -22z"/>
<path d="M7252 6671 c-71 -25 -134 -88 -178 -176 l-34 -70 16 -55 c48 -161
140 -244 285 -257 73 -7 129 18 203 91 54 53 68 85 82 181 8 58 -1 57 -15 -1
-6 -28 -9 -32 -10 -14 0 14 4 41 9 61 14 49 -12 108 -76 174 -74 76 -183 102
-282 66z m-97 -187 c2 -33 8 -72 14 -87 6 -16 11 -34 11 -41 0 -14 -37 -19
-45 -5 -4 5 -1 9 5 9 8 0 9 7 5 18 -4 9 -13 41 -21 71 -11 47 -11 57 3 78 9
13 17 22 20 20 2 -3 5 -31 8 -63z m246 40 c33 -17 63 -74 54 -103 -10 -32 -52
-63 -93 -68 -32 -4 -43 -1 -61 18 -48 52 -45 125 8 154 34 19 56 18 92 -1z
m209 -59 c0 -8 -4 -15 -10 -15 -5 0 -7 7 -4 15 4 8 8 15 10 15 2 0 4 -7 4 -15z
m-53 -57 c-3 -8 -6 -5 -6 6 -1 11 2 17 5 13 3 -3 4 -12 1 -19z m14 -58 c14 0
-17 -56 -49 -85 -76 -73 -188 -93 -242 -43 -27 26 -17 39 22 28 75 -22 209 43
240 117 11 27 12 27 15 6 3 -13 9 -23 14 -23z m-366 -40 c-3 -5 1 -11 7 -13
10 -4 10 -6 1 -6 -7 -1 -17 8 -23 19 -9 16 -8 18 5 14 8 -3 13 -10 10 -14z
m45 -40 c0 -5 -2 -10 -4 -10 -3 0 -8 5 -11 10 -3 6 -1 10 4 10 6 0 11 -4 11
-10z"/>
<path d="M6615 6864 c-17 -26 -17 -38 0 -26 16 11 36 52 26 52 -5 0 -16 -12
-26 -26z"/>
<path d="M6505 6749 c-24 -22 -33 -35 -26 -42 13 -13 30 0 54 42 23 39 17 39
-28 0z"/>
<path d="M6626 6634 c-4 -10 -1 -14 6 -12 15 5 23 28 10 28 -5 0 -13 -7 -16
-16z"/>
<path d="M2650 6400 c0 -6 -10 -15 -22 -19 -38 -15 -128 -101 -128 -122 0 -10
3 -19 6 -19 3 0 37 33 76 73 90 93 93 97 79 97 -6 0 -11 -5 -11 -10z"/>
<path d="M2669 6211 c-43 -32 -179 -176 -179 -190 0 -27 32 -5 107 72 76 78
120 134 112 141 -2 2 -20 -9 -40 -23z"/>
<path d="M2634 5968 c-66 -58 -137 -149 -125 -161 12 -12 101 68 152 137 48
64 33 77 -27 24z"/>
<path d="M7956 5867 c3 -10 9 -15 12 -12 3 3 0 11 -7 18 -10 9 -11 8 -5 -6z"/>
<path d="M2665 5779 c-49 -37 -165 -155 -165 -167 0 -26 29 -7 113 73 55 52
87 90 85 101 -3 14 -7 13 -33 -7z"/>
<path d="M2582 5507 c-53 -54 -82 -90 -82 -105 0 -12 3 -22 8 -22 11 1 73 61
113 111 102 126 80 135 -39 16z"/>
<path d="M6908 5441 c-67 -15 -87 -69 -42 -112 l26 -24 451 -5 452 -6 38 24
c33 20 38 27 35 55 -2 23 -12 38 -37 54 l-34 23 -431 -1 c-237 -1 -443 -4
-458 -8z m42 -35 c0 -3 -4 -8 -10 -11 -5 -3 -10 -1 -10 4 0 6 5 11 10 11 6 0
10 -2 10 -4z"/>
<path d="M2635 5334 c-55 -40 -155 -134 -155 -146 0 -4 3 -8 8 -8 11 0 152
106 190 143 60 58 32 65 -43 11z"/>
<path d="M6901 5168 c-27 -10 -62 -59 -59 -82 2 -11 17 -30 35 -42 32 -21 36
-21 486 -19 322 1 459 5 475 14 51 27 53 90 3 115 -23 12 -107 15 -475 18
-246 2 -455 0 -465 -4z"/>
<path d="M7150 4900 c-223 -4 -259 -7 -283 -23 -52 -34 -18 -107 56 -121 18
-3 225 -5 462 -5 l429 1 33 33 c18 18 33 38 33 45 0 6 -13 25 -29 41 -28 28
-33 29 -133 31 -170 4 -300 3 -568 -2z"/>
<path d="M6888 4614 c-13 -7 -30 -24 -38 -39 -16 -30 -9 -48 31 -77 22 -16 65
-18 474 -22 481 -5 488 -5 511 43 15 30 2 63 -35 88 -24 17 -63 18 -472 19
-342 1 -452 -2 -471 -12z m92 -65 c0 -5 -4 -9 -10 -9 -5 0 -10 7 -10 16 0 8 5
12 10 9 6 -3 10 -10 10 -16z"/>
<path d="M2582 4397 c-53 -54 -82 -90 -82 -105 0 -12 3 -22 6 -22 13 0 167
147 180 172 18 35 18 38 -4 38 -9 0 -54 -37 -100 -83z"/>
<path d="M7180 4350 c-157 -3 -293 -9 -303 -14 -45 -22 -48 -72 -7 -111 l30
-29 456 2 c251 1 464 4 475 7 11 4 26 20 35 37 15 29 15 32 -3 57 -11 14 -31
31 -44 38 -31 15 -268 20 -639 13z"/>
<path d="M2657 4005 c-47 -41 -97 -89 -111 -107 -26 -35 -44 -88 -30 -88 17 0
244 235 244 252 0 10 -4 18 -9 18 -5 0 -47 -34 -94 -75z"/>
<path d="M7025 4070 c-114 -6 -147 -16 -166 -51 -17 -32 -2 -67 39 -93 l37
-23 435 4 c471 6 470 5 491 61 13 33 0 64 -37 89 -25 16 -58 18 -358 18 -182
0 -380 -2 -441 -5z"/>
<path d="M2819 3933 c-9 -10 -64 -65 -123 -121 -58 -57 -106 -110 -106 -117 0
-7 7 -19 16 -26 15 -12 22 -8 58 36 23 28 79 90 126 138 68 70 82 90 70 97
-20 13 -23 13 -41 -7z"/>
<path d="M2821 3720 c-125 -115 -148 -144 -130 -166 6 -8 16 -14 21 -14 12 0
219 215 235 244 12 22 9 36 -8 36 -5 0 -58 -45 -118 -100z"/>
<path d="M2960 3632 c-58 -53 -118 -112 -134 -130 -28 -32 -28 -33 -10 -47 30
-23 39 -18 94 48 29 34 81 92 116 129 42 44 62 72 58 82 -3 9 -9 16 -13 16 -3
-1 -53 -45 -111 -98z"/>
<path d="M7120 3655 c-18 -19 -31 -38 -27 -41 4 -4 -1 -14 -11 -23 -10 -9 -35
-40 -56 -69 -21 -29 -46 -57 -57 -62 -10 -6 -32 -30 -49 -55 l-31 -45 40 4
c57 6 50 -3 115 136 14 31 50 82 81 113 30 32 55 62 55 67 0 20 -27 9 -60 -25z"/>
<path d="M3076 3529 c-69 -66 -126 -125 -126 -130 0 -16 44 -10 73 10 39 25
217 213 217 229 0 33 -48 1 -164 -109z"/>
<path d="M6617 3634 c-3 -3 -3 -12 0 -20 6 -16 43 -19 43 -4 0 12 -35 31 -43
24z"/>
<path d="M6240 3560 c0 -6 -4 -8 -10 -5 -5 3 -10 -1 -10 -9 0 -9 -5 -16 -11
-16 -23 0 -147 -151 -149 -182 -2 -36 81 38 134 118 14 22 35 51 46 66 13 16
17 29 10 33 -5 3 -10 1 -10 -5z"/>
<path d="M5934 3468 c-69 -71 -85 -93 -71 -96 25 -5 63 22 97 71 16 23 36 49
43 57 21 22 39 60 29 60 -5 0 -49 -41 -98 -92z"/>
<path d="M5686 6443 c-2 -10 -10 -54 -17 -98 -14 -93 -23 -115 -47 -115 -40 0
-82 -52 -97 -120 -7 -31 9 -41 31 -21 5 5 25 11 45 15 47 8 66 -13 88 -96 13
-50 21 -63 36 -63 16 0 22 14 37 80 10 44 26 88 36 97 9 10 53 31 97 47 69 25
80 32 83 54 3 23 -2 27 -49 41 -29 9 -58 16 -65 16 -7 0 -25 5 -39 12 -20 9
-25 18 -25 50 0 21 -9 57 -20 78 -18 35 -25 40 -55 40 -23 0 -35 -5 -39 -17z"/>
<path d="M3527 6443 c-4 -3 -7 -37 -7 -74 0 -72 -11 -89 -58 -89 -10 0 -41 -7
-69 -15 -41 -12 -52 -20 -58 -42 -9 -36 6 -45 103 -66 l80 -18 11 -63 c6 -34
11 -74 11 -87 0 -39 22 -61 55 -57 36 4 54 44 54 124 1 64 15 82 71 93 68 13
100 28 100 48 0 29 -13 40 -50 47 -19 4 -56 14 -81 22 l-46 15 -6 66 c-4 40
-13 73 -23 84 -17 18 -73 26 -87 12z"/>
<path d="M4164 6209 c-40 -11 -110 -87 -122 -131 -5 -19 -8 -48 -6 -64 2 -16
5 -362 7 -769 3 -725 4 -741 24 -787 26 -56 83 -98 146 -105 39 -5 58 2 178
64 155 80 328 181 449 263 47 32 119 74 160 95 41 21 120 66 175 100 55 34
125 75 155 90 85 43 239 147 301 203 62 57 85 98 75 137 -10 41 -69 97 -146
140 -40 22 -111 65 -158 96 -132 86 -271 172 -442 274 -85 50 -201 121 -257
158 -57 37 -127 79 -155 93 -29 15 -88 49 -131 76 -110 71 -178 89 -253 67z
m304 -276 c156 -106 274 -179 617 -383 352 -209 370 -221 373 -261 4 -45 -15
-62 -148 -136 -138 -76 -237 -133 -373 -215 -62 -37 -141 -84 -177 -104 -36
-21 -128 -80 -205 -130 -168 -111 -248 -154 -284 -154 -59 0 -56 -37 -58 642
0 343 -4 664 -7 714 -7 112 4 134 65 134 34 0 62 -16 197 -107z m779 -355 c-3
-8 -6 -5 -6 6 -1 11 2 17 5 13 3 -3 4 -12 1 -19z"/>
<path d="M3563 4668 c-18 -9 -23 -22 -29 -75 -8 -76 -20 -88 -104 -98 -30 -4
-65 -13 -77 -21 -32 -20 -30 -52 5 -60 15 -3 47 -12 71 -20 25 -8 52 -14 61
-14 13 0 20 -21 33 -101 17 -105 27 -129 57 -129 37 0 57 44 64 138 l7 90 72
22 c98 30 122 63 72 96 -14 9 -51 19 -83 23 l-57 6 -6 55 c-10 92 -31 114 -86
88z"/>
<path d="M5687 4663 c-2 -4 -10 -31 -17 -60 -14 -63 -22 -70 -91 -83 -107 -20
-104 -59 7 -102 109 -42 104 -36 104 -136 0 -89 8 -112 40 -112 32 0 49 26 62
91 10 57 17 70 45 89 18 12 52 29 75 37 55 19 68 30 68 58 0 20 -9 25 -77 40
-43 10 -85 21 -94 26 -8 4 -21 32 -28 62 -6 30 -17 61 -24 70 -14 18 -63 33
-70 20z"/>
<path d="M3186 4071 c-4 -5 0 -12 6 -14 8 -4 4 -8 -10 -13 l-22 -6 29 -29 c34
-32 98 -54 117 -38 7 5 24 7 39 3 26 -6 26 -5 15 16 -6 12 -14 19 -17 16 -3
-3 -18 3 -32 13 -26 19 -106 61 -115 61 -3 0 -7 -4 -10 -9z"/>
<path d="M8687 8933 c-11 -10 -8 -48 5 -61 15 -15 48 3 48 26 0 31 -35 54 -53
35z"/>
<path d="M8575 8910 c-6 -20 9 -50 26 -50 17 0 31 41 18 56 -17 20 -37 17 -44
-6z"/>
<path d="M6275 8892 c-71 -11 -155 -16 -293 -15 -157 1 -192 -2 -188 -13 14
-37 26 -95 29 -145 2 -36 12 -69 27 -95 34 -56 71 -104 80 -104 5 0 32 20 62
44 166 135 346 184 637 173 91 -4 194 -14 229 -22 93 -22 200 -76 256 -129 27
-25 50 -45 52 -43 103 119 106 126 74 179 -24 39 -25 76 -5 125 8 20 14 37 12
39 -2 2 -126 5 -277 8 -151 3 -347 7 -435 10 -123 4 -183 1 -260 -12z m-245
-66 c0 -3 -4 -8 -10 -11 -5 -3 -10 -1 -10 4 0 6 5 11 10 11 6 0 10 -2 10 -4z
m45 -6 c-3 -5 -10 -10 -16 -10 -5 0 -9 5 -9 10 0 6 7 10 16 10 8 0 12 -4 9
-10z m-175 -81 c0 -5 -4 -9 -10 -9 -5 0 -10 7 -10 16 0 8 5 12 10 9 6 -3 10
-10 10 -16z"/>
<path d="M2790 8894 c-222 -36 -327 -67 -503 -153 -148 -72 -247 -137 -349
-228 -95 -84 -216 -224 -275 -316 -99 -155 -198 -388 -247 -582 -22 -90 -27
-210 -31 -804 l-4 -544 152 8 c84 4 177 9 207 12 30 2 67 4 83 3 15 0 30 6 33
14 6 15 34 11 46 -7 4 -6 13 -4 23 6 19 19 35 22 35 6 0 -5 -4 -7 -10 -4 -5 3
-10 1 -10 -4 0 -12 11 -14 34 -5 9 3 13 10 10 16 -3 5 8 3 24 -6 51 -27 146
-17 128 13 -4 6 -3 11 1 11 11 0 12 5 18 184 3 81 7 151 9 155 2 3 7 22 10 41
9 55 53 197 80 255 93 204 317 419 535 514 175 77 222 82 797 80 266 0 487 2
493 5 5 4 12 2 16 -4 7 -11 185 -14 223 -4 12 4 22 13 22 20 0 8 4 14 10 14 5
0 7 -7 4 -15 -7 -16 5 -16 897 -19 288 -1 359 2 372 13 11 9 17 10 17 2 0 -7
31 -11 95 -11 84 0 95 2 96 18 0 15 1 15 8 -2 6 -16 12 -11 39 31 33 52 92
112 130 132 20 11 21 14 8 39 -29 57 -145 204 -182 232 -39 29 -74 39 -74 20
0 -5 -5 -10 -11 -10 -7 0 -8 7 -4 18 16 37 11 46 -30 49 -22 2 -47 7 -55 10
-8 3 -23 5 -32 4 -10 -1 -18 2 -18 8 0 5 -3 16 -6 25 -4 10 -1 16 9 16 8 0 18
6 21 13 3 6 3 2 0 -10 -4 -17 -1 -23 10 -23 20 0 20 5 -1 41 -18 30 -38 38
-46 17 -2 -7 -4 6 -3 29 1 31 4 39 13 31 9 -7 14 -3 19 16 7 29 0 56 -16 56
-11 0 -55 -67 -71 -108 -14 -36 -39 -187 -39 -238 0 -27 8 -51 25 -74 24 -32
24 -36 9 -47 -30 -22 -109 8 -137 50 -11 17 -17 52 -18 108 -2 74 2 97 35 194
21 61 49 131 62 157 13 26 24 53 24 61 0 23 -41 53 -122 92 -58 27 -91 51
-136 99 -80 86 -97 153 -66 262 l6 21 -1184 0 c-651 0 -1194 -1 -1208 -3z
m2200 -24 c0 -5 -2 -10 -4 -10 -3 0 -8 5 -11 10 -3 6 -1 10 4 10 6 0 11 -4 11
-10z m-1000 -30 c0 -5 -2 -10 -4 -10 -3 0 -8 5 -11 10 -3 6 -1 10 4 10 6 0 11
-4 11 -10z m-215 -150 c3 -5 -1 -10 -9 -10 -9 0 -16 5 -16 10 0 6 4 10 9 10 6
0 13 -4 16 -10z m-505 -20 c0 -5 -4 -10 -10 -10 -5 0 -10 5 -10 10 0 6 5 10
10 10 6 0 10 -4 10 -10z m-240 -10 c0 -5 -2 -10 -4 -10 -3 0 -8 5 -11 10 -3 6
-1 10 4 10 6 0 11 -4 11 -10z m370 0 c0 -5 -4 -10 -10 -10 -5 0 -10 5 -10 10
0 6 5 10 10 10 6 0 10 -4 10 -10z m1200 0 c0 -5 -4 -10 -10 -10 -5 0 -10 5
-10 10 0 6 5 10 10 10 6 0 10 -4 10 -10z m310 0 c0 -5 -2 -10 -4 -10 -3 0 -8
5 -11 10 -3 6 -1 10 4 10 6 0 11 -4 11 -10z m-755 -10 c3 -5 1 -10 -4 -10 -6
0 -11 5 -11 10 0 6 2 10 4 10 3 0 8 -4 11 -10z m215 0 c0 -5 -5 -10 -11 -10
-5 0 -7 5 -4 10 3 6 8 10 11 10 2 0 4 -4 4 -10z m-855 -30 c3 -5 1 -10 -4 -10
-6 0 -11 5 -11 10 0 6 2 10 4 10 3 0 8 -4 11 -10z m1125 0 c0 -5 -4 -10 -10
-10 -5 0 -10 5 -10 10 0 6 5 10 10 10 6 0 10 -4 10 -10z m-1336 -56 c3 -8 2
-12 -4 -9 -6 3 -10 10 -10 16 0 14 7 11 14 -7z m1731 6 c3 -5 1 -10 -4 -10 -6
0 -11 5 -11 10 0 6 2 10 4 10 3 0 8 -4 11 -10z m-1755 -4 c0 -3 -4 -8 -10 -11
-5 -3 -10 -1 -10 4 0 6 5 11 10 11 6 0 10 -2 10 -4z m1850 -26 c0 -5 -4 -10
-10 -10 -5 0 -10 5 -10 10 0 6 5 10 10 10 6 0 10 -4 10 -10z m-170 -10 c0 -5
-2 -10 -4 -10 -3 0 -8 5 -11 10 -3 6 -1 10 4 10 6 0 11 -4 11 -10z m260 -20
c0 -5 -2 -10 -4 -10 -3 0 -8 5 -11 10 -3 6 -1 10 4 10 6 0 11 -4 11 -10z
m-2790 -20 c0 -5 -4 -10 -10 -10 -5 0 -10 5 -10 10 0 6 5 10 10 10 6 0 10 -4
10 -10z m1520 0 c0 -5 -4 -10 -10 -10 -5 0 -10 5 -10 10 0 6 5 10 10 10 6 0
10 -4 10 -10z m-1420 -10 c0 -5 -5 -10 -11 -10 -5 0 -7 5 -4 10 3 6 8 10 11
10 2 0 4 -4 4 -10z m1170 6 c0 -3 -4 -8 -10 -11 -5 -3 -10 -1 -10 4 0 6 5 11
10 11 6 0 10 -2 10 -4z m1090 -41 c16 -33 34 -51 64 -67 71 -36 74 -61 12 -88
-53 -24 -62 -35 -71 -83 -7 -34 -10 -38 -34 -35 -22 3 -27 9 -35 51 -8 46 -11
50 -62 74 -30 14 -57 29 -59 34 -8 12 34 47 66 54 23 5 31 15 44 56 22 64 45
66 75 4z m250 25 c0 -5 -4 -10 -10 -10 -5 0 -10 5 -10 10 0 6 5 10 10 10 6 0
10 -4 10 -10z m-650 -4 c0 -3 -4 -8 -10 -11 -5 -3 -10 -1 -10 4 0 6 5 11 10
11 6 0 10 -2 10 -4z m-490 -46 c0 -5 -5 -10 -11 -10 -5 0 -7 5 -4 10 3 6 8 10
11 10 2 0 4 -4 4 -10z m-1660 -40 c0 -5 -2 -10 -4 -10 -3 0 -8 5 -11 10 -3 6
-1 10 4 10 6 0 11 -4 11 -10z m1578 -30 c-3 -16 -1 -30 4 -30 4 0 8 -4 8 -10
0 -13 -11 -13 -30 0 -12 8 -12 12 -2 18 7 5 12 13 11 18 -3 16 1 34 7 34 4 0
4 -13 2 -30z m-848 -10 c0 -5 -4 -10 -10 -10 -5 0 -10 5 -10 10 0 6 5 10 10
10 6 0 10 -4 10 -10z m1610 -26 c0 -8 -4 -12 -10 -9 -5 3 -10 13 -10 21 0 8 5
12 10 9 6 -3 10 -13 10 -21z m-527 -29 c-3 -9 -8 -14 -10 -11 -3 3 -2 9 2 15
9 16 15 13 8 -4z m-233 -5 c0 -5 -4 -10 -10 -10 -5 0 -10 5 -10 10 0 6 5 10
10 10 6 0 10 -4 10 -10z m-1745 -60 c3 -5 1 -10 -4 -10 -6 0 -11 5 -11 10 0 6
2 10 4 10 3 0 8 -4 11 -10z m1935 -50 c0 -5 -2 -10 -4 -10 -3 0 -8 5 -11 10
-3 6 -1 10 4 10 6 0 11 -4 11 -10z m-445 -30 c3 -5 1 -10 -4 -10 -6 0 -11 5
-11 10 0 6 2 10 4 10 3 0 8 -4 11 -10z m-1525 -50 c0 -5 -2 -10 -4 -10 -3 0
-8 5 -11 10 -3 6 -1 10 4 10 6 0 11 -4 11 -10z m705 0 c3 -5 1 -10 -4 -10 -6
0 -11 5 -11 10 0 6 2 10 4 10 3 0 8 -4 11 -10z m780 -30 c3 -5 1 -10 -4 -10
-6 0 -11 5 -11 10 0 6 2 10 4 10 3 0 8 -4 11 -10z m-93 -58 c16 -43 27 -56 59
-73 68 -34 62 -66 -16 -91 -32 -11 -40 -19 -46 -45 -15 -75 -68 -86 -82 -17
-8 42 -34 64 -76 64 -25 0 -44 25 -37 47 3 10 23 27 43 38 37 20 50 38 74 103
10 27 17 32 37 30 19 -2 28 -14 44 -56z m-1567 8 c3 -5 1 -10 -4 -10 -6 0 -11
5 -11 10 0 6 2 10 4 10 3 0 8 -4 11 -10z m75 -10 c0 -5 -4 -10 -10 -10 -5 0
-10 5 -10 10 0 6 5 10 10 10 6 0 10 -4 10 -10z m3777 -17 c-3 -3 -11 -2 -17 2
-9 6 -9 10 1 16 14 8 27 -7 16 -18z m-1227 -13 c0 -5 -4 -10 -10 -10 -5 0 -10
5 -10 10 0 6 5 10 10 10 6 0 10 -4 10 -10z m-2212 -22 c7 -7 12 -22 12 -35 0
-17 10 -27 38 -39 63 -28 67 -30 70 -53 5 -31 -15 -51 -52 -51 -39 0 -56 -15
-56 -50 0 -29 -35 -73 -53 -67 -7 2 -19 26 -29 53 l-16 49 -57 9 -56 8 3 35
c3 32 7 36 52 52 44 15 51 22 64 59 12 36 18 42 41 42 15 0 32 -5 39 -12z
m132 -8 c0 -5 -4 -10 -10 -10 -5 0 -10 5 -10 10 0 6 5 10 10 10 6 0 10 -4 10
-10z m2805 -10 c3 -5 -1 -10 -9 -10 -9 0 -16 5 -16 10 0 6 4 10 9 10 6 0 13
-4 16 -10z m-1085 -10 c0 -5 -4 -10 -10 -10 -5 0 -10 5 -10 10 0 6 5 10 10 10
6 0 10 -4 10 -10z m1475 -10 c3 -5 -1 -10 -9 -10 -9 0 -16 5 -16 10 0 6 4 10
9 10 6 0 13 -4 16 -10z m-1120 -40 c3 -5 1 -10 -4 -10 -6 0 -11 5 -11 10 0 6
2 10 4 10 3 0 8 -4 11 -10z m-2655 -80 c0 -5 -2 -10 -4 -10 -3 0 -8 5 -11 10
-3 6 -1 10 4 10 6 0 11 -4 11 -10z m4075 0 c3 -5 1 -10 -4 -10 -6 0 -11 5 -11
10 0 6 2 10 4 10 3 0 8 -4 11 -10z m-115 -20 c0 -5 -4 -10 -10 -10 -5 0 -10 5
-10 10 0 6 5 10 10 10 6 0 10 -4 10 -10z m-3345 -50 c3 -5 1 -10 -4 -10 -6 0
-11 5 -11 10 0 6 2 10 4 10 3 0 8 -4 11 -10z m3245 6 c0 -3 -4 -8 -10 -11 -5
-3 -10 -1 -10 4 0 6 5 11 10 11 6 0 10 -2 10 -4z m-2610 -16 c0 -5 -2 -10 -4
-10 -3 0 -8 5 -11 10 -3 6 -1 10 4 10 6 0 11 -4 11 -10z m-1230 -20 c0 -5 -2
-10 -4 -10 -3 0 -8 5 -11 10 -3 6 -1 10 4 10 6 0 11 -4 11 -10z m2015 0 c3 -5
1 -10 -4 -10 -6 0 -11 5 -11 10 0 6 2 10 4 10 3 0 8 -4 11 -10z m905 -30 c0
-5 -4 -10 -10 -10 -5 0 -10 5 -10 10 0 6 5 10 10 10 6 0 10 -4 10 -10z m490
-11 c0 -5 -4 -9 -10 -9 -5 0 -10 7 -10 16 0 8 5 12 10 9 6 -3 10 -10 10 -16z
m-820 -14 c0 -8 -2 -15 -4 -15 -2 0 -6 7 -10 15 -3 8 -1 15 4 15 6 0 10 -7 10
-15z m1285 5 c3 -5 -1 -10 -9 -10 -9 0 -16 5 -16 10 0 6 4 10 9 10 6 0 13 -4
16 -10z m-2495 -10 c0 -5 -4 -10 -10 -10 -5 0 -10 5 -10 10 0 6 5 10 10 10 6
0 10 -4 10 -10z m1447 4 c-3 -3 -12 -4 -19 -1 -8 3 -5 6 6 6 11 1 17 -2 13 -5z
m233 -4 c0 -5 -5 -10 -11 -10 -5 0 -7 5 -4 10 3 6 8 10 11 10 2 0 4 -4 4 -10z
m494 -6 c3 -8 2 -12 -4 -9 -6 3 -10 10 -10 16 0 14 7 11 14 -7z m-3442 -26
c-9 -9 -12 -7 -12 12 0 19 3 21 12 12 9 -9 9 -15 0 -24z m3078 -3 c0 -9 -6
-12 -15 -9 -8 4 -15 10 -15 15 0 5 7 9 15 9 8 0 15 -7 15 -15z m-450 1 c0 -3
-4 -8 -10 -11 -5 -3 -10 -1 -10 4 0 6 5 11 10 11 6 0 10 -2 10 -4z m-1810 -16
c0 -5 -4 -10 -10 -10 -5 0 -10 5 -10 10 0 6 5 10 10 10 6 0 10 -4 10 -10z
m2565 0 c-3 -5 -10 -10 -16 -10 -5 0 -9 5 -9 10 0 6 7 10 16 10 8 0 12 -4 9
-10z m-3550 -79 c3 -5 1 -12 -5 -16 -5 -3 -10 1 -10 9 0 18 6 21 15 7z m580
-71 c3 -5 1 -10 -4 -10 -6 0 -11 5 -11 10 0 6 2 10 4 10 3 0 8 -4 11 -10z
m-665 -60 c0 -5 -4 -10 -10 -10 -5 0 -10 5 -10 10 0 6 5 10 10 10 6 0 10 -4
10 -10z m565 -80 c3 -5 1 -10 -4 -10 -6 0 -11 5 -11 10 0 6 2 10 4 10 3 0 8
-4 11 -10z m-330 -50 c3 -5 1 -10 -4 -10 -6 0 -11 5 -11 10 0 6 2 10 4 10 3 0
8 -4 11 -10z m-185 -20 c0 -5 -5 -10 -11 -10 -5 0 -7 5 -4 10 3 6 8 10 11 10
2 0 4 -4 4 -10z m140 -28 c0 -5 -7 -9 -15 -9 -8 0 -15 4 -15 9 0 4 7 8 15 8 8
0 15 -4 15 -8z m430 -11 c0 -6 -4 -13 -10 -16 -5 -3 -10 1 -10 9 0 9 5 16 10
16 6 0 10 -4 10 -9z m-50 -105 c0 -2 -8 -10 -17 -17 -16 -13 -17 -12 -4 4 13
16 21 21 21 13z m-95 -26 c-3 -5 -10 -10 -16 -10 -5 0 -9 5 -9 10 0 6 7 10 16
10 8 0 12 -4 9 -10z m-585 -24 c0 -3 -4 -8 -10 -11 -5 -3 -10 -1 -10 4 0 6 5
11 10 11 6 0 10 -2 10 -4z m-40 -110 c0 -3 -4 -8 -10 -11 -5 -3 -10 -1 -10 4
0 6 5 11 10 11 6 0 10 -2 10 -4z m150 -46 c0 -5 -2 -10 -4 -10 -3 0 -8 5 -11
10 -3 6 -1 10 4 10 6 0 11 -4 11 -10z m-165 -280 c3 -5 1 -10 -4 -10 -6 0 -11
5 -11 10 0 6 2 10 4 10 3 0 8 -4 11 -10z m222 -37 c-3 -10 -5 -4 -5 12 0 17 2
24 5 18 2 -7 2 -21 0 -30z m-82 -13 c3 -5 1 -10 -4 -10 -6 0 -11 5 -11 10 0 6
2 10 4 10 3 0 8 -4 11 -10z m315 -160 c0 -5 -4 -10 -10 -10 -5 0 -10 5 -10 10
0 6 5 10 10 10 6 0 10 -4 10 -10z m-326 -21 c-3 -5 -10 -7 -15 -3 -5 3 -7 10
-3 15 3 5 10 7 15 3 5 -3 7 -10 3 -15z m460 0 c-6 -11 -24 -2 -24 11 0 5 7 7
15 4 8 -4 12 -10 9 -15z m-64 -25 c0 -8 -4 -12 -10 -9 -5 3 -10 10 -10 16 0 5
5 9 10 9 6 0 10 -7 10 -16z m-286 -3 c3 -5 -3 -11 -13 -14 -14 -3 -18 -1 -14
9 6 16 19 18 27 5z m-119 -11 c3 -5 1 -10 -4 -10 -6 0 -11 5 -11 10 0 6 2 10
4 10 3 0 8 -4 11 -10z"/>
<path d="M7913 8798 c0 -96 -10 -148 -31 -169 -11 -10 -23 -15 -26 -12 -3 4
-6 -1 -6 -10 0 -9 -4 -17 -9 -17 -17 0 -96 -73 -95 -87 1 -8 -3 -12 -10 -10
-20 7 -46 -13 -46 -36 0 -17 -2 -19 -9 -8 -7 12 -16 8 -41 -18 l-32 -32 24
-52 c28 -59 45 -125 54 -211 3 -32 9 -69 14 -81 12 -32 -7 -155 -27 -177 -10
-12 -30 -18 -57 -18 -34 0 -43 5 -52 24 -6 14 -8 28 -4 33 16 17 -9 246 -34
313 -14 36 -27 73 -30 83 -5 17 -8 17 -27 3 -37 -25 -109 -129 -108 -156 0
-32 24 -159 34 -182 5 -14 2 -18 -14 -18 -13 0 -21 6 -21 18 0 26 -53 81 -67
69 -33 -27 -51 -48 -78 -92 -33 -53 -44 -70 -92 -138 -18 -25 -33 -48 -33 -52
0 -3 11 -17 24 -30 14 -14 42 -55 62 -92 21 -38 43 -71 48 -75 6 -4 52 -7 101
-6 128 2 204 -9 287 -38 234 -84 438 -237 553 -415 138 -213 185 -383 185
-665 0 -111 3 -155 13 -161 6 -4 46 -8 87 -9 169 -2 657 -5 680 -5 l25 1 -2
398 c-3 603 -10 847 -27 932 -19 94 -96 320 -139 408 -117 236 -343 497 -543
625 -164 106 -379 203 -490 221 l-41 7 0 -63z m107 -252 c0 -2 -7 -7 -16 -10
-8 -3 -12 -2 -9 4 6 10 25 14 25 6z m190 -46 c0 -5 -2 -10 -4 -10 -3 0 -8 5
-11 10 -3 6 -1 10 4 10 6 0 11 -4 11 -10z m-513 -85 c8 -23 -4 -30 -22 -12
-19 20 -19 27 0 27 9 0 18 -7 22 -15z m50 -26 c12 -30 12 -31 -15 -24 -33 8
-31 5 -25 37 6 33 25 27 40 -13z m403 11 c0 -5 -4 -10 -10 -10 -5 0 -10 5 -10
10 0 6 5 10 10 10 6 0 10 -4 10 -10z m100 -31 c0 -6 -4 -7 -10 -4 -5 3 -10 11
-10 16 0 6 5 7 10 4 6 -3 10 -11 10 -16z m100 -39 c0 -5 -2 -10 -4 -10 -3 0
-8 5 -11 10 -3 6 -1 10 4 10 6 0 11 -4 11 -10z m-580 -20 c0 -5 -2 -10 -4 -10
-3 0 -8 5 -11 10 -3 6 -1 10 4 10 6 0 11 -4 11 -10z m70 -60 c0 -5 -2 -10 -4
-10 -3 0 -8 5 -11 10 -3 6 -1 10 4 10 6 0 11 -4 11 -10z m880 -4 c0 -3 -4 -8
-10 -11 -5 -3 -10 -1 -10 4 0 6 5 11 10 11 6 0 10 -2 10 -4z m-790 -20 c0 -3
-4 -8 -10 -11 -5 -3 -10 -1 -10 4 0 6 5 11 10 11 6 0 10 -2 10 -4z m-210 -156
c0 -5 -2 -10 -4 -10 -3 0 -8 5 -11 10 -3 6 -1 10 4 10 6 0 11 -4 11 -10z m670
-100 c0 -5 -4 -10 -10 -10 -5 0 -10 5 -10 10 0 6 5 10 10 10 6 0 10 -4 10 -10z
m-986 -46 c3 -8 2 -12 -4 -9 -6 3 -10 10 -10 16 0 14 7 11 14 -7z m441 7 c3
-5 1 -12 -5 -16 -5 -3 -10 1 -10 9 0 18 6 21 15 7z m815 -11 c0 -5 -2 -10 -4
-10 -3 0 -8 5 -11 10 -3 6 -1 10 4 10 6 0 11 -4 11 -10z m-1430 -40 c0 -5 -4
-10 -10 -10 -5 0 -10 5 -10 10 0 6 5 10 10 10 6 0 10 -4 10 -10z m460 -120 c0
-5 -4 -10 -10 -10 -5 0 -10 5 -10 10 0 6 5 10 10 10 6 0 10 -4 10 -10z m682
-67 c20 -42 28 -49 61 -54 46 -7 50 -11 50 -49 0 -38 -1 -38 -59 -53 l-49 -12
-5 -49 c-4 -37 -10 -51 -25 -56 -38 -13 -54 0 -61 49 -8 55 -19 71 -50 71 -43
0 -74 21 -74 50 0 34 14 46 65 56 45 8 55 18 55 55 0 33 7 39 41 39 24 0 32
-7 51 -47z m233 17 c3 -5 1 -10 -4 -10 -6 0 -11 5 -11 10 0 6 2 10 4 10 3 0 8
-4 11 -10z m-1065 -20 c0 -5 -5 -10 -11 -10 -5 0 -7 5 -4 10 3 6 8 10 11 10 2
0 4 -4 4 -10z m-280 -16 c0 -8 -4 -12 -10 -9 -5 3 -10 10 -10 16 0 5 5 9 10 9
6 0 10 -7 10 -16z m130 2 c0 -2 -7 -7 -16 -10 -8 -3 -12 -2 -9 4 6 10 25 14
25 6z m1530 -70 c0 -3 -4 -8 -10 -11 -5 -3 -10 -1 -10 4 0 6 5 11 10 11 6 0
10 -2 10 -4z m-1155 -56 c-5 -8 -11 -8 -17 -2 -6 6 -7 16 -3 22 5 8 11 8 17 2
6 -6 7 -16 3 -22z m875 10 c0 -5 -4 -10 -10 -10 -5 0 -10 5 -10 10 0 6 5 10
10 10 6 0 10 -4 10 -10z m-605 -110 c3 -5 1 -10 -4 -10 -6 0 -11 5 -11 10 0 6
2 10 4 10 3 0 8 -4 11 -10z m55 -90 c0 -5 -4 -10 -10 -10 -5 0 -10 5 -10 10 0
6 5 10 10 10 6 0 10 -4 10 -10z m525 -106 c17 -12 18 -16 5 -24 -18 -11 -33
-2 -26 15 3 8 0 16 -7 19 -7 2 -7 5 -2 5 6 0 19 -6 30 -15z m-445 -44 c0 -5
-4 -10 -10 -10 -5 0 -10 5 -10 10 0 6 5 10 10 10 6 0 10 -4 10 -10z m150 -120
c0 -5 -4 -10 -10 -10 -5 0 -10 5 -10 10 0 6 5 10 10 10 6 0 10 -4 10 -10z m60
-320 c0 -5 -5 -10 -11 -10 -5 0 -7 5 -4 10 3 6 8 10 11 10 2 0 4 -4 4 -10z
m505 -310 c3 -5 1 -10 -4 -10 -6 0 -11 5 -11 10 0 6 2 10 4 10 3 0 8 -4 11
-10z m-465 -50 c0 -5 -4 -10 -10 -10 -5 0 -10 5 -10 10 0 6 5 10 10 10 6 0 10
-4 10 -10z m80 -84 c0 -2 -7 -6 -15 -10 -8 -3 -15 -1 -15 4 0 6 7 10 15 10 8
0 15 -2 15 -4z m600 -16 c0 -5 -2 -10 -4 -10 -3 0 -8 5 -11 10 -3 6 -1 10 4
10 6 0 11 -4 11 -10z"/>
<path d="M6420 8606 c-134 -25 -272 -85 -350 -154 l-44 -39 17 -27 c10 -14 38
-47 64 -71 l46 -45 62 58 c76 70 160 107 276 122 72 8 101 7 192 -9 125 -23
178 -49 225 -111 19 -25 38 -45 43 -45 5 0 31 31 58 68 l50 69 -27 41 c-46 69
-191 126 -377 147 -109 12 -151 11 -235 -4z m250 -40 c0 -3 -4 -8 -10 -11 -5
-3 -10 -1 -10 4 0 6 5 11 10 11 6 0 10 -2 10 -4z"/>
<path d="M8901 8497 c-13 -16 -5 -27 21 -27 11 0 18 7 18 20 0 23 -22 27 -39
7z"/>
<path d="M6420 8296 c-78 -22 -143 -59 -163 -93 l-19 -33 88 -100 c49 -55 96
-100 105 -100 9 0 32 6 50 13 36 14 46 14 149 2 l66 -7 32 49 c17 26 47 70 67
98 51 72 45 104 -25 140 -80 41 -257 57 -350 31z m120 -76 c0 -5 -2 -10 -4
-10 -3 0 -8 5 -11 10 -3 6 -1 10 4 10 6 0 11 -4 11 -10z m90 0 c0 -10 -26 -20
-34 -13 -11 12 -6 19 14 20 11 1 20 -2 20 -7z m-105 -31 c-4 -5 -13 -9 -22 -9
-13 0 -13 3 -3 15 13 15 35 11 25 -6z m55 11 c0 -5 -4 -10 -10 -10 -5 0 -10 5
-10 10 0 6 5 10 10 10 6 0 10 -4 10 -10z m-153 -6 c-3 -3 -12 -4 -19 -1 -8 3
-5 6 6 6 11 1 17 -2 13 -5z m143 -159 c10 -12 10 -15 -4 -15 -9 0 -16 7 -16
15 0 8 2 15 4 15 2 0 9 -7 16 -15z"/>
<path d="M1219 8103 c-9 -2 -21 -15 -28 -29 -9 -22 -8 -28 14 -49 13 -14 31
-25 39 -25 18 0 46 38 46 62 0 15 -37 50 -50 47 -3 -1 -12 -3 -21 -6z"/>
<path d="M9396 6458 c-33 -46 -9 -108 42 -108 21 0 62 43 62 65 0 7 -9 24 -21
39 -25 32 -62 34 -83 4z"/>
<path d="M1082 6438 c-31 -31 -2 -90 42 -90 32 0 46 15 46 53 0 32 -17 49 -50
49 -14 0 -31 -5 -38 -12z"/>
<path d="M1868 6293 c7 -3 16 -2 19 1 4 3 -2 6 -13 5 -11 0 -14 -3 -6 -6z"/>
<path d="M1990 6153 c-25 -2 -153 -7 -285 -12 -228 -9 -349 -26 -365 -50 -10
-16 -108 -30 -254 -37 -164 -8 -196 -20 -196 -73 0 -51 35 -71 136 -75 167 -8
1100 -10 1112 -2 8 5 12 37 11 99 0 51 2 99 5 107 3 8 2 20 -2 27 -7 12 -87
20 -162 16z m-553 -89 c-9 -9 -28 6 -21 18 4 6 10 6 17 -1 6 -6 8 -13 4 -17z
m657 -40 c7 -19 2 -18 -19 6 -16 17 -16 20 -3 15 9 -4 19 -13 22 -21z m-145
-33 c-15 -5 -22 6 -14 19 6 9 10 9 16 -1 5 -8 4 -15 -2 -18z m-89 -1 c0 -5 -4
-10 -10 -10 -5 0 -10 5 -10 10 0 6 5 10 10 10 6 0 10 -4 10 -10z m220 -25 c-8
-20 -14 -25 -21 -18 -8 8 -6 17 8 30 23 25 26 22 13 -12z m-270 -10 c0 -8 -7
-15 -15 -15 -8 0 -15 7 -15 15 0 8 7 15 15 15 8 0 15 -7 15 -15z m-140 1 c0
-3 -4 -8 -10 -11 -5 -3 -10 -1 -10 4 0 6 5 11 10 11 6 0 10 -2 10 -4z m-86
-22 c3 -8 2 -12 -4 -9 -6 3 -10 10 -10 16 0 14 7 11 14 -7z m413 -20 c-3 -3
-12 -4 -19 -1 -8 3 -5 6 6 6 11 1 17 -2 13 -5z"/>
<path d="M8350 6121 c-15 -29 -13 -193 3 -215 12 -16 34 -17 245 -16 127 0
300 7 384 16 84 8 221 14 303 13 83 -1 179 2 214 6 98 12 129 58 74 109 -25
24 -31 25 -173 25 -148 1 -233 16 -262 45 -26 25 -166 36 -473 36 -291 0 -305
-1 -315 -19z m130 -71 c0 -5 -4 -10 -10 -10 -5 0 -10 5 -10 10 0 6 5 10 10 10
6 0 10 -4 10 -10z m-75 -60 c3 -5 1 -10 -4 -10 -6 0 -11 5 -11 10 0 6 2 10 4
10 3 0 8 -4 11 -10z"/>
<path d="M1765 5758 c-289 -14 -390 -20 -393 -23 -3 -2 -9 -74 -11 -123 -1
-14 -11 -27 -26 -34 -20 -9 -23 -14 -13 -26 10 -12 9 -14 -7 -10 -11 2 -19 11
-19 19 1 13 -9 16 -47 15 -49 -1 -60 -11 -36 -35 10 -11 8 -11 -10 0 -12 7
-24 22 -27 32 -6 24 -30 17 -34 -9 -4 -24 34 -47 69 -42 17 2 23 8 21 22 -3
17 -2 18 12 7 9 -8 16 -20 16 -27 0 -8 9 -14 20 -14 11 0 20 4 20 9 0 5 15 5
32 2 28 -6 34 -12 39 -44 3 -20 8 -40 11 -43 3 -3 37 -7 74 -10 38 -3 77 -7
87 -9 9 -2 17 2 17 7 0 6 6 6 14 -1 9 -8 43 -11 90 -10 65 3 76 6 76 21 0 10
5 18 10 18 6 0 10 -7 10 -15 0 -11 12 -15 43 -16 23 -1 53 -3 67 -5 54 -6 261
-6 268 0 3 4 8 81 10 171 l4 164 -23 5 c-43 9 -231 11 -364 4z m245 -114 c0
-8 -4 -12 -10 -9 -5 3 -10 10 -10 16 0 5 5 9 10 9 6 0 10 -7 10 -16z m-332
-69 c-6 -14 -13 -23 -15 -21 -5 5 15 46 22 46 3 0 -1 -11 -7 -25z m387 15 c3
-5 1 -10 -4 -10 -6 0 -11 5 -11 10 0 6 2 10 4 10 3 0 8 -4 11 -10z m-699 -35
c2 -27 -10 -34 -19 -11 -4 10 9 36 18 36 0 0 1 -11 1 -25z m-81 -15 c3 -5 1
-10 -4 -10 -6 0 -11 5 -11 10 0 6 2 10 4 10 3 0 8 -4 11 -10z m335 -90 c0 -5
-4 -10 -10 -10 -5 0 -10 5 -10 10 0 6 5 10 10 10 6 0 10 -4 10 -10z m248 -9
c3 -8 -1 -12 -9 -9 -7 2 -15 10 -17 17 -3 8 1 12 9 9 7 -2 15 -10 17 -17z"/>
<path d="M8366 5738 c-19 -15 -21 -27 -21 -161 0 -100 4 -148 12 -159 24 -28
686 -8 771 23 12 5 22 17 22 28 0 22 16 26 125 36 165 14 234 42 209 83 -10
14 -32 17 -145 19 -185 4 -179 1 -179 68 0 30 -4 55 -9 55 -6 0 -63 7 -128 16
-168 22 -627 17 -657 -8z m54 -48 c0 -5 -2 -10 -4 -10 -2 0 -12 -3 -22 -7 -16
-6 -17 -5 -4 10 17 19 30 22 30 7z m320 -24 c0 -3 -4 -8 -10 -11 -5 -3 -10 -1
-10 4 0 6 5 11 10 11 6 0 10 -2 10 -4z m370 -30 c0 -3 -4 -8 -10 -11 -5 -3
-10 -1 -10 4 0 6 5 11 10 11 6 0 10 -2 10 -4z m-685 -15 c3 -5 1 -12 -5 -16
-5 -3 -10 1 -10 9 0 18 6 21 15 7z m745 -51 c0 -5 -5 -10 -11 -10 -5 0 -7 5
-4 10 3 6 8 10 11 10 2 0 4 -4 4 -10z m-40 -100 c0 -5 -4 -10 -10 -10 -5 0
-10 5 -10 10 0 6 5 10 10 10 6 0 10 -4 10 -10z m-310 -4 c0 -2 -7 -6 -15 -10
-8 -3 -15 -1 -15 4 0 6 7 10 15 10 8 0 15 -2 15 -4z m260 -6 c0 -5 -5 -10 -11
-10 -5 0 -7 5 -4 10 3 6 8 10 11 10 2 0 4 -4 4 -10z m-153 -36 c-3 -3 -12 -4
-19 -1 -8 3 -5 6 6 6 11 1 17 -2 13 -5z"/>
<path d="M9199 5276 c-3 -3 -188 -6 -411 -6 -306 -1 -409 -4 -422 -13 -15 -11
-18 -39 -20 -222 -2 -116 1 -221 6 -234 l9 -24 362 8 c199 5 374 9 389 9 14 1
29 4 33 8 3 3 6 80 6 171 l-1 164 52 6 c29 4 130 7 223 7 186 0 218 8 223 51
6 50 -16 56 -218 63 -102 4 -194 9 -205 12 -11 3 -23 3 -26 0z m-394 -56 c3
-5 -1 -10 -10 -10 -9 0 -13 5 -10 10 3 6 8 10 10 10 2 0 7 -4 10 -10z m-325
-21 c0 -5 -7 -9 -15 -9 -15 0 -20 12 -9 23 8 8 24 -1 24 -14z m240 -49 c0 -5
-2 -10 -4 -10 -3 0 -8 5 -11 10 -3 6 -1 10 4 10 6 0 11 -4 11 -10z m-232 -58
c2 -7 -2 -10 -12 -6 -9 3 -16 11 -16 16 0 13 23 5 28 -10z m-111 -164 c-3 -8
-6 -5 -6 6 -1 11 2 17 5 13 3 -3 4 -12 1 -19z m133 -8 c0 -5 -2 -10 -4 -10 -3
0 -8 5 -11 10 -3 6 -1 10 4 10 6 0 11 -4 11 -10z m225 -80 c3 -5 1 -10 -4 -10
-6 0 -11 5 -11 10 0 6 2 10 4 10 3 0 8 -4 11 -10z m79 -31 c-3 -5 -10 -7 -15
-3 -5 3 -7 10 -3 15 3 5 10 7 15 3 5 -3 7 -10 3 -15z"/>
<path d="M941 5254 c-26 -19 -28 -65 -3 -87 15 -14 50 -17 223 -19 l204 -3 5
-110 c3 -61 5 -138 4 -172 -1 -52 1 -63 15 -64 9 -1 110 -3 224 -5 114 -2 227
-5 251 -8 24 -3 58 -1 75 4 19 5 31 5 31 -1 0 -5 41 -9 90 -9 l90 0 0 68 c0
40 -5 73 -12 80 -9 9 -9 12 0 12 17 0 17 293 -1 308 -16 14 -97 17 -366 14
-218 -2 -223 -2 -218 -22 3 -11 1 -20 -4 -20 -5 0 -9 9 -9 20 0 18 -7 20 -87
21 -49 1 -179 3 -289 4 -166 3 -205 1 -223 -11z m879 -34 c0 -5 -5 -10 -11
-10 -5 0 -7 5 -4 10 3 6 8 10 11 10 2 0 4 -4 4 -10z m-257 -82 c-10 -18 -29
-7 -27 15 1 12 3 29 4 37 0 8 7 2 14 -15 7 -16 11 -33 9 -37z m147 52 c0 -5
-4 -10 -10 -10 -5 0 -10 5 -10 10 0 6 5 10 10 10 6 0 10 -4 10 -10z m200 -16
c0 -8 -5 -12 -10 -9 -6 4 -8 11 -5 16 9 14 15 11 15 -7z m130 -34 c0 -5 -4
-10 -10 -10 -5 0 -10 5 -10 10 0 6 5 10 10 10 6 0 10 -4 10 -10z m-345 -50 c3
-5 1 -10 -4 -10 -6 0 -11 5 -11 10 0 6 2 10 4 10 3 0 8 -4 11 -10z m90 -40 c3
-5 1 -10 -4 -10 -6 0 -11 5 -11 10 0 6 2 10 4 10 3 0 8 -4 11 -10z m-195 -34
c0 -3 -4 -8 -10 -11 -5 -3 -10 -1 -10 4 0 6 5 11 10 11 6 0 10 -2 10 -4z m145
-36 c3 -5 1 -10 -4 -10 -6 0 -11 5 -11 10 0 6 2 10 4 10 3 0 8 -4 11 -10z
m129 -55 c3 -8 1 -15 -4 -15 -6 0 -10 7 -10 15 0 8 2 15 4 15 2 0 6 -7 10 -15z
m-64 -5 c0 -5 -4 -10 -10 -10 -5 0 -10 5 -10 10 0 6 5 10 10 10 6 0 10 -4 10
-10z m80 -29 c0 -5 -9 -13 -20 -16 -11 -3 -27 -13 -36 -22 -12 -12 -18 -13
-27 -4 -9 9 -6 13 11 17 12 4 22 10 22 14 0 7 17 15 43 19 4 0 7 -3 7 -8z
m170 -35 c0 -3 -4 -8 -10 -11 -5 -3 -10 -1 -10 4 0 6 5 11 10 11 6 0 10 -2 10
-4z m-85 -16 c3 -5 1 -10 -4 -10 -6 0 -11 5 -11 10 0 6 2 10 4 10 3 0 8 -4 11
-10z m-335 -10 c0 -5 -4 -10 -10 -10 -5 0 -10 5 -10 10 0 6 5 10 10 10 6 0 10
-4 10 -10z"/>
<path d="M993 4683 c-8 -3 -13 -23 -13 -48 0 -23 6 -47 13 -53 12 -9 174 -21
309 -22 l66 0 7 -94 c4 -52 7 -112 7 -133 -4 -650 0 -1738 7 -1798 20 -164 96
-402 174 -545 128 -235 318 -446 523 -580 173 -114 365 -193 558 -231 106 -21
268 -27 274 -10 2 6 8 11 13 11 6 0 7 -4 4 -10 -8 -13 -1 -13 470 -11 182 1
304 6 311 12 8 7 14 7 18 0 10 -15 476 -14 476 1 0 9 3 9 12 0 9 -9 165 -12
641 -12 545 0 628 2 624 14 -4 10 -1 13 9 9 7 -3 14 -9 14 -14 0 -5 87 -9 195
-9 149 0 195 3 195 13 0 9 3 9 9 -1 7 -12 54 -12 266 -5 141 4 258 6 260 3 7
-12 1318 -11 1399 1 390 56 753 265 974 562 191 256 297 514 331 802 10 85 17
1158 11 1766 l-2 257 68 6 c38 3 123 8 189 12 66 4 128 11 138 16 12 6 17 21
17 48 0 50 -10 53 -156 46 -118 -7 -498 -21 -823 -32 -252 -9 -241 -2 -241
-150 0 -61 4 -105 10 -109 6 -4 138 -7 293 -6 155 0 298 -3 317 -7 31 -7 35
-12 38 -44 2 -27 -1 -37 -15 -43 -10 -4 -148 -12 -308 -17 -222 -7 -295 -13
-312 -24 -20 -13 -23 -22 -22 -87 1 -118 -28 -107 271 -107 146 0 289 -5 325
-11 l63 -11 0 -38 c0 -31 -4 -39 -22 -44 -13 -4 -156 -9 -318 -12 -203 -4
-298 -10 -306 -17 -16 -17 -48 -197 -37 -208 19 -19 111 -26 359 -28 142 0
273 -4 291 -7 l32 -6 3 -114 3 -113 -25 -7 c-14 -4 -196 -9 -406 -13 -408 -6
-414 -7 -414 -57 0 -17 11 -31 33 -45 31 -19 44 -20 387 -16 195 3 370 2 388
0 l32 -6 0 -112 0 -113 -132 -6 c-73 -3 -284 -8 -468 -10 -279 -4 -344 -8
-385 -22 -76 -25 -87 -55 -27 -75 27 -9 150 -12 477 -11 242 1 461 -1 488 -4
l47 -6 0 -96 c0 -54 -4 -103 -9 -110 -6 -10 -99 -12 -475 -8 -257 3 -472 8
-477 12 -6 3 -13 3 -16 0 -4 -3 -1 -6 5 -6 7 0 12 -7 12 -15 0 -8 7 -15 15
-15 9 0 26 -10 39 -22 35 -35 64 -49 71 -37 5 7 11 6 20 -1 9 -7 88 -13 217
-16 246 -6 561 -22 583 -30 10 -4 14 -13 10 -23 -4 -9 -10 -54 -15 -100 -5
-46 -10 -84 -12 -86 -9 -7 -261 -25 -355 -25 -123 0 -154 7 -274 61 -118 53
-203 72 -334 72 -121 1 -136 -3 -314 -80 -57 -25 -145 -56 -195 -70 -80 -22
-104 -25 -206 -20 -125 5 -179 21 -321 93 -154 77 -325 95 -482 49 -46 -13
-120 -38 -163 -56 -44 -17 -126 -44 -184 -60 -176 -46 -296 -31 -500 66 -149
71 -230 89 -375 82 -121 -6 -195 -26 -320 -89 -111 -57 -211 -80 -334 -80
-148 1 -251 26 -389 96 -82 42 -144 57 -263 67 -107 9 -122 7 -210 -15 -52
-13 -134 -43 -183 -66 -233 -109 -427 -106 -673 11 -98 47 -203 69 -328 69
-122 0 -196 -15 -362 -74 -136 -47 -171 -52 -424 -48 l-216 3 -12 52 c-7 29
-15 79 -18 113 l-6 61 64 6 c35 4 161 9 279 12 424 10 547 16 648 29 119 16
137 26 104 59 l-23 22 -472 2 c-260 0 -500 2 -534 2 l-63 1 0 105 0 105 488 0
c366 0 491 3 500 12 18 18 15 73 -5 89 -13 11 -104 14 -477 17 -254 1 -471 4
-483 7 -22 5 -23 9 -23 120 l0 115 78 1 c42 1 203 2 357 3 307 2 345 8 345 52
0 15 -6 24 -16 24 -8 0 -13 4 -9 9 3 5 2 12 -2 14 -8 5 -512 23 -705 26 l-47
1 -3 115 c-3 107 -2 114 17 121 11 4 146 8 300 10 154 2 295 6 313 9 29 5 32
9 32 39 0 19 -7 53 -17 77 -9 24 -17 62 -17 84 -1 36 -4 40 -36 47 -31 8 -249
15 -496 17 l-91 1 -1 45 c0 25 3 47 7 50 13 7 441 7 529 0 l82 -8 2 49 c4 127
2 157 -17 170 -14 10 -63 14 -184 16 -308 3 -356 4 -384 12 -24 6 -27 11 -25
41 1 19 6 35 11 35 4 0 5 5 1 11 -5 8 -2 9 12 1 10 -5 27 -7 38 -3 20 7 112
10 421 14 l130 2 2 118 c1 110 0 118 -20 129 -14 7 -110 12 -277 14 -322 4
-569 13 -685 24 -97 10 -163 11 -182 3z m8477 -70 c-11 -17 -11 -17 -6 0 3 10
6 24 7 30 0 9 2 9 5 0 3 -7 0 -20 -6 -30z m-8270 17 c0 -5 -2 -10 -4 -10 -3 0
-8 5 -11 10 -3 6 -1 10 4 10 6 0 11 -4 11 -10z m7240 -29 c0 -6 -4 -13 -10
-16 -5 -3 -10 1 -10 9 0 9 5 16 10 16 6 0 10 -4 10 -9z m-6833 -48 c-3 -3 -11
-2 -17 2 -9 6 -9 10 1 16 14 8 27 -7 16 -18z m338 17 c3 -5 1 -10 -4 -10 -6 0
-11 5 -11 10 0 6 2 10 4 10 3 0 8 -4 11 -10z m6625 -10 c0 -5 -2 -10 -4 -10
-3 0 -8 5 -11 10 -3 6 -1 10 4 10 6 0 11 -4 11 -10z m-170 -15 c0 -8 -4 -15
-10 -15 -5 0 -10 7 -10 15 0 8 5 15 10 15 6 0 10 -7 10 -15z m120 5 c0 -5 -5
-10 -11 -10 -5 0 -7 5 -4 10 3 6 8 10 11 10 2 0 4 -4 4 -10z m-6830 -10 c0 -5
-4 -10 -9 -10 -6 0 -13 5 -16 10 -3 6 1 10 9 10 9 0 16 -4 16 -10z m-10 -60
c0 -5 -4 -10 -10 -10 -5 0 -10 5 -10 10 0 6 5 10 10 10 6 0 10 -4 10 -10z
m6985 0 c3 -5 1 -10 -4 -10 -6 0 -11 5 -11 10 0 6 2 10 4 10 3 0 8 -4 11 -10z
m-6885 -10 c0 -5 -4 -10 -10 -10 -5 0 -10 5 -10 10 0 6 5 10 10 10 6 0 10 -4
10 -10z m90 -4 c0 -2 -9 -6 -20 -9 -11 -3 -20 -1 -20 4 0 5 9 9 20 9 11 0 20
-2 20 -4z m7213 -191 c-3 -9 -8 -14 -10 -11 -3 3 -2 9 2 15 9 16 15 13 8 -4z
m-663 -30 c0 -8 -4 -15 -10 -15 -5 0 -7 7 -4 15 4 8 8 15 10 15 2 0 4 -7 4
-15z m-6714 -52 c-11 -11 -19 6 -11 24 8 17 8 17 12 0 3 -10 2 -21 -1 -24z
m6699 -13 c-3 -5 -12 -10 -18 -10 -7 0 -6 4 3 10 19 12 23 12 15 0z m-6315
-30 c0 -5 -5 -10 -11 -10 -5 0 -7 5 -4 10 3 6 8 10 11 10 2 0 4 -4 4 -10z
m-310 -10 c0 -5 -4 -10 -10 -10 -5 0 -10 5 -10 10 0 6 5 10 10 10 6 0 10 -4
10 -10z m6682 -12 c-7 -7 -12 -8 -12 -2 0 14 12 26 19 19 2 -3 -1 -11 -7 -17z
m-6822 -24 c0 -2 -7 -4 -15 -4 -8 0 -15 4 -15 10 0 5 7 7 15 4 8 -4 15 -8 15
-10z m6780 7 c0 -17 -18 -21 -24 -6 -3 9 0 15 9 15 8 0 15 -4 15 -9z m-6475
-21 c3 -5 1 -10 -4 -10 -6 0 -11 5 -11 10 0 6 2 10 4 10 3 0 8 -4 11 -10z
m6562 -166 c-3 -3 -12 -4 -19 -1 -8 3 -5 6 6 6 11 1 17 -2 13 -5z m-6752 -42
c-3 -3 -11 0 -18 7 -9 10 -8 11 6 5 10 -3 15 -9 12 -12z m190 -12 c3 -5 1 -10
-4 -10 -6 0 -11 5 -11 10 0 6 2 10 4 10 3 0 8 -4 11 -10z m6638 -67 c-7 -2
-19 -2 -25 0 -7 3 -2 5 12 5 14 0 19 -2 13 -5z m-6738 -43 c3 -5 1 -10 -4 -10
-6 0 -11 5 -11 10 0 6 2 10 4 10 3 0 8 -4 11 -10z m280 -390 c3 -5 1 -10 -4
-10 -6 0 -11 5 -11 10 0 6 2 10 4 10 3 0 8 -4 11 -10z m6385 0 c0 -5 -2 -10
-4 -10 -3 0 -8 5 -11 10 -3 6 -1 10 4 10 6 0 11 -4 11 -10z m575 -100 c3 -5 1
-10 -4 -10 -6 0 -11 5 -11 10 0 6 2 10 4 10 3 0 8 -4 11 -10z m-250 -230 c3
-5 1 -10 -4 -10 -6 0 -11 5 -11 10 0 6 2 10 4 10 3 0 8 -4 11 -10z m-6183
-669 c42 -6 124 -32 220 -69 179 -71 257 -87 382 -79 118 7 196 26 353 86 187
71 281 82 453 49 49 -9 105 -30 237 -89 74 -33 163 -49 283 -49 178 1 238 15
473 109 111 45 213 58 331 43 82 -10 111 -20 220 -72 146 -70 196 -83 326 -84
169 -2 276 19 433 86 65 27 144 53 175 59 141 23 283 -2 444 -77 105 -49 209
-73 317 -74 105 0 258 29 350 67 46 19 129 50 185 69 96 34 106 35 201 31 111
-6 186 -26 335 -90 90 -38 100 -40 195 -41 55 0 155 4 223 9 l123 8 -7 -29
c-4 -16 -21 -58 -38 -94 -40 -84 -59 -91 -256 -93 -145 -2 -145 -2 -253 36
-240 86 -437 88 -642 8 -129 -50 -299 -91 -379 -91 -88 0 -258 38 -362 80
-113 46 -130 50 -219 59 -118 12 -253 -9 -418 -64 -186 -61 -247 -75 -347 -75
-103 0 -198 23 -357 86 -96 37 -138 48 -222 57 -152 15 -257 0 -463 -67 -312
-102 -419 -97 -782 34 -160 57 -388 51 -563 -16 -306 -117 -438 -120 -696 -18
-76 30 -161 59 -189 64 -124 24 -327 2 -467 -50 -45 -16 -122 -35 -173 -41
-90 -11 -348 -6 -369 7 -6 3 -31 47 -55 97 -33 68 -41 93 -32 99 7 4 92 8 188
8 222 0 324 13 420 52 162 67 258 80 422 59z m1615 -23 c-3 -8 -6 -5 -6 6 -1
11 2 17 5 13 3 -3 4 -12 1 -19z m2898 -48 c3 -5 1 -10 -4 -10 -6 0 -11 5 -11
10 0 6 2 10 4 10 3 0 8 -4 11 -10z m-3025 -244 c0 -3 -4 -8 -10 -11 -5 -3 -10
-1 -10 4 0 6 5 11 10 11 6 0 10 -2 10 -4z m115 -26 c3 -5 1 -10 -4 -10 -6 0
-11 5 -11 10 0 6 2 10 4 10 3 0 8 -4 11 -10z m-1517 -25 c38 -8 116 -33 171
-55 234 -94 369 -93 662 8 151 52 240 66 381 59 90 -4 133 -11 213 -37 175
-56 318 -91 398 -96 101 -6 272 24 431 77 141 46 211 59 326 59 102 -1 148
-11 350 -80 149 -51 160 -54 282 -58 148 -5 209 6 423 76 l140 46 155 0 155 0
135 -46 c183 -64 248 -78 360 -78 112 0 226 24 393 80 222 75 389 77 600 5
136 -46 274 -68 358 -56 35 5 66 7 68 5 3 -3 -5 -17 -17 -32 -12 -15 -36 -50
-54 -79 l-33 -52 -95 0 c-52 0 -322 -3 -600 -8 -278 -4 -651 -5 -830 -3 -427
6 -551 6 -880 -2 -151 -4 -390 -3 -530 2 -328 12 -523 13 -740 3 -96 -4 -254
-8 -350 -8 -477 1 -1295 5 -1450 6 -357 3 -910 4 -1068 1 -125 -3 -165 0 -175
10 -67 72 -137 164 -137 180 0 2 78 3 173 4 160 0 178 2 262 29 50 15 117 34
150 40 84 18 289 18 373 0z m4807 -25 c3 -5 1 -10 -4 -10 -6 0 -11 5 -11 10 0
6 2 10 4 10 3 0 8 -4 11 -10z m-85 -21 c0 -6 -4 -7 -10 -4 -5 3 -10 11 -10 16
0 6 5 7 10 4 6 -3 10 -11 10 -16z m-1255 1 c3 -5 2 -10 -4 -10 -5 0 -13 5 -16
10 -3 6 -2 10 4 10 5 0 13 -4 16 -10z m-4495 -30 c0 -5 -5 -10 -11 -10 -5 0
-7 5 -4 10 3 6 8 10 11 10 2 0 4 -4 4 -10z m70 -80 c0 -5 -5 -10 -11 -10 -5 0
-7 5 -4 10 3 6 8 10 11 10 2 0 4 -4 4 -10z m50 -120 c0 -5 -2 -10 -4 -10 -3 0
-8 5 -11 10 -3 6 -1 10 4 10 6 0 11 -4 11 -10z m2685 -59 c3 -5 1 -12 -5 -16
-5 -3 -10 1 -10 9 0 18 6 21 15 7z m225 -1 c0 -5 -4 -10 -10 -10 -5 0 -10 5
-10 10 0 6 5 10 10 10 6 0 10 -4 10 -10z m-325 -10 c3 -5 1 -10 -4 -10 -6 0
-11 5 -11 10 0 6 2 10 4 10 3 0 8 -4 11 -10z m3795 -24 c118 -3 227 -9 243
-12 26 -6 25 -8 -40 -52 -78 -52 -163 -92 -197 -92 -12 0 -26 -3 -29 -7 -4 -3
-19 -7 -34 -8 -16 -1 -50 -7 -78 -14 -27 -6 -66 -14 -85 -17 -79 -12 -121 -44
-57 -44 24 0 28 -3 17 -10 -12 -8 -12 -10 5 -10 14 -1 10 -5 -15 -17 -24 -11
-83 -18 -190 -22 -233 -11 -4898 -10 -5023 1 -110 9 -227 42 -235 66 -3 10 11
12 64 9 39 -3 60 -1 49 3 -35 14 -169 38 -207 38 -45 0 -135 41 -232 105 -38
26 -74 48 -80 50 -27 10 9 16 137 22 76 4 170 10 211 14 40 3 153 2 252 -3 98
-5 370 -8 604 -6 234 3 556 3 715 2 160 -1 472 -1 695 0 223 2 533 1 690 -1
390 -6 886 -7 1120 -2 107 2 368 0 580 -4 402 -8 881 6 889 27 2 7 6 7 10 1 3
-6 102 -13 221 -17z m-6210 -60 c0 -3 -4 -8 -10 -11 -5 -3 -10 -1 -10 4 0 6 5
11 10 11 6 0 10 -2 10 -4z m120 -126 c0 -5 -2 -10 -4 -10 -3 0 -8 5 -11 10 -3
6 -1 10 4 10 6 0 11 -4 11 -10z m5890 -80 c0 -5 -2 -10 -4 -10 -3 0 -8 5 -11
10 -3 6 -1 10 4 10 6 0 11 -4 11 -10z m-923 -86 c-3 -3 -12 -4 -19 -1 -8 3 -5
6 6 6 11 1 17 -2 13 -5z m-2977 -14 c0 -5 -2 -10 -4 -10 -3 0 -8 5 -11 10 -3
6 -1 10 4 10 6 0 11 -4 11 -10z m3170 -20 c0 -5 -2 -10 -4 -10 -3 0 -8 5 -11
10 -3 6 -1 10 4 10 6 0 11 -4 11 -10z m-1650 -20 c0 -5 -5 -10 -11 -10 -5 0
-7 5 -4 10 3 6 8 10 11 10 2 0 4 -4 4 -10z m-2095 -20 c3 -5 -1 -10 -9 -10 -9
0 -16 5 -16 10 0 6 4 10 9 10 6 0 13 -4 16 -10z m3355 0 c0 -5 -2 -10 -4 -10
-3 0 -8 5 -11 10 -3 6 -1 10 4 10 6 0 11 -4 11 -10z m-4125 -20 c-3 -5 -10
-10 -16 -10 -5 0 -9 5 -9 10 0 6 7 10 16 10 8 0 12 -4 9 -10z m3735 0 c13 -8
13 -10 -2 -10 -9 0 -20 5 -23 10 -8 13 5 13 25 0z"/>
<path d="M7647 1403 c-4 -3 -7 -14 -7 -23 0 -16 36 -25 45 -11 6 11 -30 43
-38 34z"/>
<path d="M7840 1400 c-12 -7 -10 -9 7 -7 12 0 19 5 17 9 -6 10 -6 10 -24 -2z"/>
<path d="M6690 1390 c-22 -14 -7 -21 29 -14 23 5 29 9 19 15 -17 11 -29 11
-48 -1z"/>
<path d="M7595 1387 c11 -9 15 -19 10 -28 -6 -11 -5 -11 5 -2 16 15 6 43 -17
43 -15 0 -15 -1 2 -13z"/>
<path d="M943 4135 c-36 -15 -44 -47 -20 -79 12 -17 24 -18 143 -10 l129 9 3
31 c5 54 -16 64 -126 64 -61 -1 -109 -6 -129 -15z m227 -45 c0 -5 -4 -10 -10
-10 -5 0 -10 5 -10 10 0 6 5 10 10 10 6 0 10 -4 10 -10z"/>
<path d="M9340 4143 c-38 -5 -61 -19 -59 -37 1 -6 -1 -19 -6 -29 -12 -27 1
-32 73 -30 55 2 70 6 85 24 42 52 1 84 -93 72z"/>
<path d="M9570 4135 c-20 -24 3 -67 33 -63 18 2 22 9 22 38 0 28 -4 36 -21 38
-11 2 -27 -4 -34 -13z"/>
<path d="M9404 3475 c-15 -23 -15 -27 0 -50 20 -31 50 -32 70 -3 12 16 13 26
4 42 -22 43 -50 47 -74 11z"/>
<path d="M1050 3471 c-24 -45 3 -82 45 -63 31 14 34 56 6 72 -28 15 -39 13
-51 -9z"/>
<path d="M1056 2808 c-31 -44 -11 -88 38 -88 20 0 56 35 56 55 0 21 -36 55
-59 55 -11 0 -27 -10 -35 -22z m34 -62 c0 -3 -4 -8 -10 -11 -5 -3 -10 -1 -10
4 0 6 5 11 10 11 6 0 10 -2 10 -4z"/>
<path d="M9412 2823 c-7 -3 -20 -19 -28 -35 -15 -29 -15 -32 4 -57 25 -34 58
-38 88 -10 54 51 5 130 -64 102z m22 -68 c3 -8 1 -15 -4 -15 -6 0 -10 7 -10
15 0 8 2 15 4 15 2 0 6 -7 10 -15z"/>
<path d="M1140 2312 c0 -28 11 -34 26 -14 19 24 17 32 -6 32 -13 0 -20 -7 -20
-18z"/>
<path d="M9286 2104 c-19 -18 -21 -65 -4 -82 32 -32 98 1 98 49 0 41 -64 63
-94 33z"/>
<path d="M1183 2103 c-18 -7 -16 -76 2 -119 10 -24 20 -34 29 -31 8 3 16 1 18
-5 3 -8 10 -7 26 1 18 9 22 21 22 57 0 37 -6 51 -29 75 -29 28 -43 33 -68 22z"/>
<path d="M1025 1799 c-10 -15 3 -25 16 -12 7 7 7 13 1 17 -6 3 -14 1 -17 -5z"/>
<path d="M1339 1643 c-24 -6 -40 -48 -30 -76 5 -13 23 -35 40 -50 36 -30 64
-26 88 10 15 23 15 27 -2 59 -17 31 -22 36 -42 33 -3 0 -10 6 -15 15 -9 16
-11 17 -39 9z"/>
<path d="M8990 1622 c0 -5 -11 -14 -25 -20 -36 -17 -44 -60 -15 -84 22 -18 23
-18 54 1 17 11 38 31 46 46 14 25 14 27 -9 46 -24 20 -51 25 -51 11z"/>
<path d="M1523 1438 c-38 -47 -13 -113 46 -124 27 -5 37 -3 48 11 20 28 16 52
-14 84 -33 35 -66 47 -80 29z"/>
<path d="M1754 1222 c-13 -9 -34 -46 -34 -62 0 -20 53 -60 80 -60 31 0 60 27
60 57 0 45 -70 89 -106 65z"/>
<path d="M1973 1223 c-18 -7 -16 -23 2 -23 8 0 15 7 15 15 0 8 -1 15 -2 14 -2
0 -9 -3 -15 -6z"/>
<path d="M2186 1084 c-11 -29 -6 -49 14 -62 40 -25 86 30 53 63 -19 20 -59 19
-67 -1z"/>
<path d="M1337 1083 c-13 -12 -7 -41 9 -47 28 -11 34 -7 34 24 0 22 -5 30 -18
30 -10 0 -22 -3 -25 -7z"/>
</g>
</svg>
